<?xml version="1.0" encoding="UTF-8"?>
<svg width="293px" height="298px" viewBox="0 0 293 298" version="1.1" xmlns="http://www.w3.org/2000/svg" xmlns:xlink="http://www.w3.org/1999/xlink">
    <!-- Generator: Sketch 52.6 (67491) - http://www.bohemiancoding.com/sketch -->
    <title>Bakery Logo</title>
    <g id="Page-1" stroke="none" stroke-width="1" fill="none" fill-rule="evenodd">
        <g id="35230-NZYFVT" transform="translate(-83.000000, -73.000000)">
            <g id="Group" transform="translate(83.000000, 73.000000)">
                <path d="M106.297,110.702 C105.931,110.138 105.288,109.854 104.866,109.301 C104.362,108.646 103.969,107.905 103.591,107.172 C102.499,105.053 102.121,102.982 102.019,100.615 C102.009,100.418 101.716,100.418 101.707,100.615 C101.654,101.937 101.607,103.262 101.759,104.579 C101.886,105.663 102.357,106.655 102.789,107.641 C103.285,108.771 104.448,111.599 106.072,111.252 C106.304,111.204 106.424,110.896 106.297,110.702" id="Fill-35" fill="#36211D"></path>
                <path d="M131.96,115.514 C131.235,115.015 130.356,115.145 129.508,115.006 C128.595,114.855 127.751,114.614 126.921,114.199 C124.778,113.127 122.785,111.853 120.982,110.267 C120.831,110.134 120.63,110.336 120.763,110.486 C121.631,111.472 122.433,112.504 123.384,113.413 C124.233,114.224 125.219,114.806 126.186,115.457 C127.571,116.386 130.421,117.546 131.96,116.542 C132.352,116.288 132.337,115.771 131.96,115.514" id="Fill-36" fill="#36211D"></path>
                <path d="M166.667,115.249 C164.34,114.851 162.604,113.252 160.554,112.222 C160.275,112.083 160.031,112.49 160.308,112.642 C162.244,113.708 164.228,115.935 166.594,115.79 C166.888,115.771 166.991,115.303 166.667,115.249" id="Fill-37" fill="#36211D"></path>
                <path d="M190.227,109.466 C188.584,109.411 187.578,107.807 186.228,107.104 C185.977,106.973 185.758,107.342 186.004,107.484 C187.471,108.333 188.392,110.123 190.227,110.26 C190.735,110.297 190.739,109.483 190.227,109.466" id="Fill-38" fill="#36211D"></path>
                <path d="M193.641,107.1 C193.588,106.98 193.434,106.906 193.309,106.908 C192.018,106.924 190.434,105.986 189.364,105.075 C189.138,104.883 188.835,105.179 189.034,105.403 C189.792,106.253 190.671,107.072 191.625,107.694 C192.076,107.988 192.586,108.236 193.129,108.098 C193.602,107.979 193.849,107.539 193.641,107.1" id="Fill-39" fill="#36211D"></path>
                <path d="M118.123,84.583 C117.354,86.379 116.479,88.475 116.914,90.441 C116.995,90.807 117.548,90.792 117.637,90.441 C118.112,88.59 118.073,86.627 118.505,84.746 C118.554,84.525 118.221,84.357 118.123,84.583" id="Fill-40" fill="#36211D"></path>
                <path d="M199.145,95.218 C199.191,95.291 199.239,95.364 199.282,95.438 C199.38,95.597 199.43,95.835 199.465,96.085 C199.364,95.787 199.256,95.497 199.145,95.218 Z M194.831,93.676 C194.942,93.734 195.051,93.785 195.163,93.835 C195.166,93.917 195.173,93.997 195.177,94.077 C195.067,93.942 194.952,93.808 194.831,93.676 Z M194.207,93.007 C194.058,92.836 193.908,92.65 193.768,92.46 C193.921,92.541 194.076,92.627 194.227,92.714 C194.197,92.813 194.192,92.912 194.207,93.007 Z M147.534,79.14 C147.532,79.132 147.529,79.121 147.525,79.112 C147.581,79.037 147.637,78.962 147.69,78.886 C147.77,78.785 147.804,78.677 147.811,78.569 C148.02,78.581 148.232,78.588 148.442,78.593 C148.123,78.739 147.822,78.927 147.534,79.14 Z M141.199,86.9 C140.794,88.377 140.458,89.884 140.344,91.413 C140.063,90.836 139.837,90.232 139.683,89.598 C139.376,88.339 139,87.314 138.979,85.974 C138.96,84.738 139.177,83.487 139.438,82.284 C139.455,82.208 139.455,82.142 139.446,82.075 C139.6,81.629 139.768,81.186 139.951,80.742 C139.981,80.669 139.993,80.599 139.989,80.532 C140.895,79.795 142.113,79.388 143.238,79.261 C143.954,79.181 144.681,79.265 145.373,79.455 C143.564,81.699 141.979,84.051 141.199,86.9 Z M137.516,84.164 C137.666,83.325 137.868,82.497 138.07,81.674 C138.07,81.671 138.069,81.667 138.07,81.664 C138.136,81.695 138.205,81.715 138.277,81.72 C137.983,82.53 137.726,83.342 137.516,84.164 Z M123.766,89.829 C123.788,88.879 123.961,87.956 124.219,87.048 C124.031,87.983 123.88,88.936 123.766,89.829 Z M121.773,94.57 C121.926,94.724 122.081,94.875 122.246,95.019 C122.266,95.092 122.293,95.162 122.317,95.235 C122.133,95.016 121.952,94.794 121.773,94.57 Z M200.593,95.479 C200.495,94.359 198.921,93.064 198.38,92.133 C198.244,91.899 198.019,91.844 197.82,91.903 C196.619,90.602 194.791,89.75 193.381,88.726 C191.046,87.029 188.565,85.693 185.836,84.754 C184.51,84.298 183.156,83.929 181.815,83.519 C181.508,83.424 181.192,83.375 180.879,83.347 C180.974,83.139 180.922,82.863 180.699,82.749 C179.259,82.008 177.288,82.779 175.848,83.246 C174.876,83.565 173.946,83.978 172.968,84.291 C172.517,84.432 172.153,84.699 171.793,84.967 C171.719,84.945 171.627,84.953 171.553,85.024 C171.366,85.191 171.178,85.354 170.985,85.516 C170.745,85.646 170.487,85.744 170.192,85.779 C169.814,85.82 169.676,86.218 169.802,86.471 C168.111,87.778 166.35,88.982 164.868,90.553 C164.219,91.24 163.837,92.253 163.493,93.207 C163.5,92.244 163.495,91.281 163.479,90.318 C163.758,88.626 164.172,86.96 164.878,85.44 C165.464,84.18 166.103,82.963 166.654,81.684 C167.063,80.739 167.537,79.806 168.208,79.039 C168.551,79.287 168.999,79.347 169.545,79.518 C169.855,79.614 170.102,79.393 170.152,79.125 C170.853,79.241 171.534,79.45 172.164,79.822 C173.354,80.528 173.695,81.993 173.874,83.265 C173.948,83.794 174.698,83.604 174.74,83.148 C175.054,79.903 172.58,78.419 169.814,78.12 C169.681,77.803 169.537,77.488 169.355,77.305 C168.696,76.644 167.51,76.502 166.634,76.388 C164.479,76.11 162.378,75.863 160.196,75.831 C155.215,75.765 150.297,76.649 145.458,77.747 C145.419,77.754 145.387,77.769 145.361,77.789 C144.516,77.662 143.621,77.707 143.039,77.79 C142.063,77.931 141.153,78.298 140.363,78.842 C140.268,78.658 140.096,78.505 139.879,78.475 C137.003,78.095 134.231,78.605 131.415,79.207 C129.791,79.554 128.112,80.094 126.67,80.978 C125.008,80.959 123.254,81.736 122.279,83.071 C122.161,83.23 122.431,83.39 122.544,83.228 C123.447,81.961 124.757,81.532 126.17,81.309 C126.139,81.332 126.108,81.349 126.076,81.372 C125.97,81.335 125.847,81.358 125.789,81.479 C125.762,81.536 125.734,81.594 125.706,81.65 C125.392,81.902 125.091,82.174 124.817,82.472 C124.621,82.683 124.888,82.95 125.11,82.818 C123.794,85.248 122.241,87.447 122.046,90.347 C122.04,90.439 122.033,90.534 122.026,90.628 C121.756,89.899 121.562,89.137 121.475,88.335 C121.375,87.457 120.596,83.448 121.6,83.006 C121.944,82.855 121.844,82.292 121.5,82.22 C118.997,81.695 119.393,85.668 119.342,87.163 C119.283,88.931 119.56,90.773 120.288,92.394 C120.523,92.912 120.791,93.362 121.091,93.769 C121.083,93.761 121.075,93.751 121.066,93.742 C120.818,93.487 120.435,93.872 120.677,94.132 C120.712,94.172 120.755,94.22 120.8,94.275 C120.948,94.559 120.94,94.941 121.018,95.238 C121.129,95.669 121.422,96.031 121.86,96.13 C121.996,96.162 122.105,95.996 122.002,95.891 C121.767,95.659 121.609,95.463 121.509,95.215 C122.211,96.146 123.146,97.288 123.945,97.382 C124.022,97.43 124.093,97.48 124.172,97.525 C124.528,97.725 124.851,97.542 124.975,97.26 C125.069,97.412 125.185,97.552 125.348,97.682 C125.518,97.816 125.827,97.637 125.676,97.427 C125.357,96.976 125.265,96.533 125.268,95.993 C125.27,95.622 124.691,95.622 124.696,95.993 C124.697,96.125 124.703,96.253 124.713,96.377 C124.618,96.24 124.528,96.099 124.451,95.947 C124.654,95.729 124.742,95.402 124.555,95.128 C124.39,94.888 124.229,94.644 124.067,94.402 C124.262,94.358 124.435,94.204 124.451,93.937 C124.585,91.789 124.929,89.585 125.319,87.472 C125.561,86.163 126.076,81.703 128.063,81.741 C128.197,81.742 128.244,81.559 128.132,81.494 C128.042,81.441 127.953,81.401 127.865,81.366 C129.374,80.871 131.003,80.694 132.58,80.517 C134.192,80.337 135.799,80.151 137.405,79.944 C137.364,80.136 137.379,80.341 137.454,80.548 C137.461,80.567 137.468,80.587 137.475,80.609 C137.484,80.674 137.495,80.743 137.516,80.806 C137.54,80.896 137.58,80.974 137.631,81.048 L137.651,81.108 C137.673,81.161 137.692,81.213 137.712,81.267 C137.726,81.303 137.746,81.333 137.764,81.366 C137.679,81.38 137.606,81.432 137.58,81.541 C137.023,83.808 136.249,86.455 136.512,88.8 C136.527,88.939 136.644,89.039 136.766,89.07 C136.727,89.828 136.719,90.593 136.749,91.369 C136.764,91.782 137.115,91.959 137.421,91.9 C137.478,93.275 137.72,94.403 138.406,94.182 C138.506,94.149 138.602,94.051 138.592,93.937 C138.564,93.619 138.308,93.375 138.205,93.069 C138.008,92.472 138.007,91.809 137.989,91.185 C137.981,90.798 137.989,90.41 138.001,90.022 C138.295,90.713 138.434,91.484 138.738,92.184 C138.867,92.478 139.02,92.761 139.182,93.039 C139.535,94.39 139.478,95.834 139.905,97.155 C139.998,97.442 140.245,97.549 140.529,97.507 C141.17,97.417 141.436,97.05 141.249,96.413 C141.156,96.101 140.756,96.083 140.605,96.334 C140.291,95.66 140.121,94.933 139.946,94.205 C139.981,94.255 140.016,94.306 140.052,94.356 C140.316,94.717 140.596,95.072 140.897,95.405 C141.133,96.016 141.406,96.619 141.66,97.235 C141.97,97.989 143.313,98.014 143.267,97.085 C143.282,97.091 143.297,97.098 143.311,97.102 C143.82,97.273 144.3,96.641 144.008,96.194 C143.683,95.691 143.293,95.255 142.892,94.826 C142.873,94.727 142.852,94.627 142.833,94.526 C142.875,94.601 142.917,94.679 142.961,94.752 C143.3,95.318 144.273,94.948 144.051,94.292 C143.095,91.481 143.657,88.283 144.45,85.505 C144.521,85.257 144.589,85.009 144.655,84.764 C145.109,84.019 145.553,83.267 146.021,82.53 C146.452,81.853 146.934,80.712 147.632,80.28 C148.38,79.812 148.772,78.906 149.708,78.771 C149.817,78.754 149.873,78.674 149.886,78.583 C151.701,78.523 153.521,78.306 155.34,78.188 C155.094,78.416 154.842,78.641 154.581,78.848 C154.521,78.734 154.413,78.652 154.265,78.664 C151.918,78.842 149.847,80.819 149.141,83.01 C148.968,83.543 149.638,83.827 150.007,83.515 C150.595,83.019 151.105,82.448 151.609,81.875 C151.708,81.912 151.823,81.903 151.899,81.81 C152.283,81.345 152.726,80.928 153.222,80.582 C153.595,80.317 154.205,80.124 154.507,79.794 C155,79.257 155.478,78.705 155.955,78.153 C156.426,78.129 156.897,78.11 157.368,78.106 C158.217,78.102 159.07,78.11 159.925,78.129 C158.628,78.973 157.517,80.071 156.943,81.497 C156.811,81.824 157.274,82.188 157.558,81.969 C158.471,81.268 159.133,80.336 159.943,79.523 C160.444,79.023 160.989,78.576 161.568,78.184 C162.118,78.209 162.668,78.239 163.217,78.278 C164.076,78.342 164.923,78.481 165.775,78.604 C166.431,78.696 167.038,78.688 167.664,78.795 C165.937,80.223 164.957,82.453 163.796,84.342 C162.095,87.11 161.75,90.361 161.915,93.521 C161.909,93.555 161.903,93.588 161.898,93.62 C161.683,94.916 161.103,96.732 161.874,97.89 C162.019,98.104 162.224,98.212 162.435,98.225 C162.439,98.335 162.44,98.447 162.447,98.561 C162.487,99.283 163.479,99.26 163.549,98.561 C163.592,98.166 163.651,97.751 163.729,97.327 C163.873,97.478 164.101,97.526 164.285,97.393 C164.46,97.502 164.717,97.498 164.859,97.339 C165.546,96.575 165.842,95.438 166.387,94.558 C167.024,93.525 167.748,92.55 168.354,91.497 C168.495,91.254 168.142,90.959 167.955,91.189 C167.577,91.657 167.171,92.104 166.768,92.55 C167.402,91.101 168.214,89.894 169.078,88.537 C169.189,88.36 169.18,88.193 169.102,88.064 C169.616,87.594 170.131,87.125 170.638,86.646 C171.153,86.579 171.601,86.411 172.06,86.088 C172.698,85.64 173.353,85.452 174.049,85.281 C173.632,85.51 173.243,85.765 173.043,86.097 C172.35,87.257 171.312,88.128 170.503,89.196 C170.367,89.378 170.64,89.652 170.821,89.515 C171.692,88.854 172.445,88.058 173.063,87.154 C173.494,86.525 173.777,86.104 174.407,85.642 C174.703,85.425 174.994,85.206 175.264,84.96 C176.08,84.717 176.877,84.428 177.706,84.222 C177.729,84.216 177.752,84.212 177.775,84.207 C177.915,84.294 178.06,84.377 178.203,84.458 C178.196,84.463 178.189,84.464 178.182,84.468 C177.742,84.693 177.319,84.948 176.905,85.22 C176.511,85.481 176.245,85.95 175.863,86.254 C175.309,86.693 175.907,87.618 176.541,87.416 C177.257,87.186 177.887,86.938 178.493,86.49 C179.008,86.107 179.549,85.75 180.095,85.409 C180.596,85.65 181.095,85.896 181.572,86.169 C182.205,86.535 182.874,86.823 183.556,87.081 C182.771,87.419 182.102,87.777 181.653,88.593 C181.449,88.965 181.851,89.333 182.213,89.152 C182.955,88.784 183.635,88.333 184.393,87.982 C184.61,87.881 184.814,87.747 185.012,87.597 C185.562,87.786 186.11,87.971 186.647,88.18 C188.247,88.793 189.749,89.773 191.162,90.729 C191.693,91.088 192.203,91.534 192.748,91.896 C193.098,93.36 194.227,94.589 194.959,95.892 C195.361,96.605 195.68,97.308 195.988,98.039 C195.942,98.981 195.956,99.927 195.971,100.871 C195.594,100.618 195.234,100.34 194.881,99.991 C194.3,99.419 193.676,98.975 192.877,98.776 C192.543,98.694 192.321,99.175 192.64,99.341 C193.401,99.739 193.884,100.613 194.416,101.267 C194.851,101.807 195.362,102.298 195.979,102.565 C195.968,103.328 195.917,104.107 195.793,104.863 C195.516,104.813 195.239,104.668 194.986,104.553 C194.407,104.288 193.931,103.976 193.466,103.542 C193.257,103.347 192.959,103.646 193.152,103.854 C193.423,104.142 193.703,104.402 193.914,104.734 C194.15,105.105 194.52,105.494 194.881,105.747 C195.048,105.866 195.278,106.014 195.517,106.104 C195.001,107.875 193.972,109.408 192.003,110.183 C190.851,110.636 189.691,111.097 188.524,111.537 C188.183,111.131 187.812,111.04 187.3,110.889 C186.462,110.641 185.678,110.235 184.896,109.851 C183.586,109.205 182.333,108.364 181.161,107.494 C180.802,107.225 180.487,107.771 180.722,108.065 C181.69,109.29 182.889,110.21 184.189,111.06 C184.771,111.439 185.608,111.974 186.456,112.281 C185.759,112.518 185.062,112.739 184.358,112.941 C183.739,112.688 183.066,112.509 182.496,112.207 C181.354,111.601 180.359,110.758 179.438,109.861 C178.766,109.206 177.742,110.23 178.409,110.893 C179.326,111.803 180.313,112.614 181.407,113.305 C181.535,113.386 181.671,113.471 181.814,113.558 C181.456,113.628 181.098,113.694 180.736,113.749 C180.69,113.755 180.646,113.761 180.602,113.767 C180.227,113.671 179.846,113.59 179.483,113.471 C178.533,113.159 177.643,112.659 176.782,112.158 C174.903,111.067 173.204,109.723 171.391,108.542 C171.112,108.359 170.722,108.727 170.921,109.008 C172.178,110.762 174.392,112.034 176.2,113.155 C176.666,113.444 177.247,113.808 177.874,114.134 C176.854,114.263 175.834,114.391 174.818,114.547 C174.528,114.592 174.239,114.641 173.951,114.696 C172.911,113.919 171.641,113.333 170.589,112.714 C168.748,111.628 166.878,110.555 165.279,109.123 C164.973,108.849 164.54,109.275 164.827,109.577 C166.083,110.896 167.523,111.989 169.051,112.974 C168.557,112.769 168.07,112.536 167.593,112.227 C166.557,111.558 165.559,110.691 164.826,109.696 C164.577,109.359 164.013,109.669 164.254,110.03 C165.023,111.188 166.06,112.128 167.16,112.964 C168.103,113.682 169.545,114.661 170.795,114.303 C170.877,114.28 170.935,114.235 170.976,114.184 C171.338,114.409 171.701,114.632 172.062,114.861 C172.146,114.917 172.234,114.972 172.319,115.029 C170.985,115.318 169.658,115.624 168.301,115.791 C166.055,116.066 163.797,116.063 161.542,116.105 C160.623,115.83 159.808,115.208 158.983,114.732 C157.875,114.095 156.58,113.764 155.425,113.23 C155.122,113.09 154.853,113.521 155.158,113.688 C156.387,114.353 157.624,115.089 158.786,115.87 C158.94,115.972 159.085,116.077 159.231,116.176 C158.872,116.193 158.51,116.214 158.151,116.242 C157.4,115.303 155.981,114.708 155.002,114.146 C153.511,113.292 151.995,112.526 150.725,111.348 C149.965,110.644 148.843,111.754 149.584,112.487 C150.709,113.597 152.021,114.438 153.374,115.243 C154.081,115.664 154.799,116.065 155.503,116.493 C154.66,116.559 153.818,116.598 152.973,116.614 C149.468,115.364 146.416,113.228 143.663,110.703 C143.45,110.507 143.077,110.763 143.247,111.024 C144.705,113.249 146.802,115.353 149.24,116.678 C148.229,116.716 147.225,116.777 146.207,116.863 C146.505,116.709 146.449,116.218 146.044,116.179 C142.373,115.809 139.332,114.702 136.898,111.818 C136.792,111.688 136.596,111.852 136.674,111.99 C138.447,115.187 141.708,116.958 145.296,116.936 C142.828,117.142 140.339,117.176 137.855,117.167 C137.945,117.132 138.032,117.092 138.12,117.046 C138.52,116.83 138.479,116.262 138.12,116.036 C137.533,115.664 136.849,115.587 136.193,115.374 C135.371,115.11 134.61,114.736 133.855,114.318 C132.282,113.445 130.828,112.51 129.187,111.756 C129.002,111.671 128.795,111.895 128.958,112.05 C130.404,113.429 131.746,114.774 133.402,115.919 C134.063,116.375 134.936,116.889 135.829,117.154 C135.171,117.146 134.515,117.14 133.859,117.134 C129.895,117.101 125.933,116.939 122.058,116.054 C121.433,115.912 120.815,115.752 120.198,115.587 C119.095,114.666 118.065,113.667 117.011,112.696 C116.675,112.385 116.206,112.857 116.511,113.196 C117.053,113.794 117.584,114.404 118.127,115.002 C117.597,114.847 117.067,114.691 116.536,114.536 C116.496,114.523 116.453,114.513 116.411,114.5 C116.084,113.885 115.354,113.583 114.733,113.216 C113.503,112.489 112.338,111.692 111.266,110.733 C111.054,110.544 110.764,110.834 110.955,111.047 C111.652,111.823 112.338,112.565 113.215,113.139 C113.635,113.416 114.041,113.715 114.443,114.024 C113.279,113.79 112.112,113.625 110.917,113.46 C111.269,113.245 111.281,112.702 110.903,112.422 C108.882,110.924 107.47,108.998 106.6,106.607 C106.317,105.828 105.076,106.151 105.345,106.954 C105.807,108.337 106.486,109.656 107.278,110.878 C107.746,111.602 108.425,112.578 109.26,113.128 C107.969,112.78 106.798,112.24 105.574,111.535 C103.961,110.607 102.236,109.824 100.82,108.604 C99.039,107.073 97.853,105.199 97.331,103.072 C97.439,102.918 97.488,102.715 97.429,102.478 C97.287,101.909 97.15,101.311 97.028,100.707 C97.025,100.51 97.025,100.312 97.034,100.113 C97.143,96.908 98.525,93.997 100.918,91.887 C102.08,90.863 103.596,90.205 104.99,89.572 C106.503,88.885 107.963,88.234 109.564,87.788 C110.387,87.557 111.203,87.267 111.981,86.915 C112.403,86.724 112.805,86.518 113.208,86.29 C113.49,86.132 113.96,85.634 114.262,85.574 C114.839,85.457 115.425,84.966 115.874,84.615 C116.398,84.204 117.64,84.346 118.302,84.286 C119.766,84.15 119.766,82.147 118.302,82.012 C116.778,81.871 115.494,81.586 114.096,82.308 C112.594,83.083 111.205,84.034 109.572,84.591 C108.768,84.867 107.933,85.062 107.107,85.268 C106.37,85.453 105.616,85.958 104.918,86.265 C103.337,86.968 101.748,87.638 100.277,88.556 C97.602,90.225 95.682,93.041 94.734,96.157 C94.496,96.562 94.408,97.106 94.365,97.625 C93.843,100.238 93.999,102.967 94.962,105.347 C96.211,108.437 98.7,111.111 101.645,112.655 C103.301,113.521 104.866,114.562 106.577,115.318 C108.433,116.137 110.439,116.28 112.424,116.554 C116.387,117.097 120.146,118.755 124.109,119.408 C128.126,120.07 132.265,120.043 136.324,120.047 C138.289,120.049 140.251,120.054 142.215,120 C144.307,119.945 146.414,119.535 148.494,119.535 C150.233,119.535 151.974,119.552 153.713,119.53 C155.533,119.508 157.331,119.165 159.144,119.045 C163.182,118.782 167.141,119.014 171.153,118.272 C173.171,117.9 175.138,117.396 177.178,117.126 C179.284,116.847 181.394,116.618 183.482,116.218 C185.336,115.861 187.075,115.067 188.844,114.417 C190.625,113.767 192.564,113.23 194.202,112.258 C195.776,111.327 196.999,109.896 197.794,108.257 C198.113,108.69 198.831,108.814 199.151,108.22 C199.938,106.762 200.259,105.341 200.359,103.829 C200.821,102.593 201.063,101.238 201.215,100.074 C201.431,98.395 200.736,97.1 200.593,95.479 Z" id="Fill-41" fill="#36211D"></path>
                <path d="M109.189,93.962 C109.028,93.924 108.869,93.887 108.708,93.851 C108.5,93.801 108.246,93.84 108.102,94.01 C107.83,94.325 107.465,94.687 107.121,95.081 C107.119,95.042 107.112,95.003 107.111,94.964 C107.107,94.821 106.88,94.823 106.891,94.964 C106.898,95.076 106.917,95.185 106.942,95.293 C106.323,96.049 105.849,96.908 106.283,97.786 C106.523,98.272 107.246,98.328 107.605,97.958 C107.981,97.566 108.133,96.945 108.375,96.458 C108.62,95.959 108.855,95.492 109.028,94.978 C109.083,94.965 109.137,94.952 109.189,94.941 C109.678,94.827 109.678,94.074 109.189,93.962" id="Fill-42" fill="#36211D"></path>
                <path d="M110.494,95.993 C110.486,96.222 110.312,96.552 110.217,96.808 C110.043,97.288 109.981,97.797 110.262,98.242 C110.428,98.5 110.764,98.481 110.931,98.242 C111.186,97.878 111.255,97.445 111.417,97.033 C111.557,96.682 111.704,96.375 111.728,95.993 C111.775,95.201 110.516,95.195 110.494,95.993" id="Fill-43" fill="#36211D"></path>
                <path d="M150.515,100.653 C150.566,100.661 150.616,100.67 150.667,100.671 C150.739,100.675 150.739,100.564 150.667,100.561 C150.595,100.557 150.523,100.547 150.452,100.535 C150.396,100.427 150.337,100.313 150.289,100.19 C150.086,99.67 150.112,99.107 150.121,98.561 C150.142,97.279 148.11,97.279 148.133,98.561 C148.158,99.864 148.473,102.542 150.328,102.271 C150.536,102.241 150.74,102.014 150.783,101.816 C150.886,101.328 150.71,101.01 150.515,100.653" id="Fill-44" fill="#36211D"></path>
                <path d="M157.339,102.89 C157.185,102.632 157.187,102.472 157.119,102.211 C157.115,102.184 157.112,102.165 157.109,102.148 C157.104,102.096 157.102,102.04 157.101,101.987 C157.095,101.871 157.101,101.756 157.104,101.643 C157.127,100.632 155.507,100.632 155.536,101.643 C155.545,102 155.568,102.359 155.672,102.703 C155.802,103.125 156.186,103.452 156.537,103.689 C157.034,104.025 157.629,103.376 157.339,102.89" id="Fill-45" fill="#36211D"></path>
                <path d="M179.407,96.536 C179.068,96.184 178.631,95.955 178.306,95.584 C178.006,95.244 177.868,94.772 177.798,94.337 C177.712,93.816 177.003,94.011 176.954,94.452 C176.815,95.651 177.371,97.432 178.741,97.68 C179.396,97.797 179.911,97.058 179.407,96.536" id="Fill-46" fill="#36211D"></path>
                <path d="M182.905,95.688 C182.842,95.581 182.771,95.497 182.665,95.432 C182.648,95.421 182.64,95.419 182.631,95.413 C182.625,95.406 182.616,95.394 182.594,95.371 C182.491,95.266 182.45,95.202 182.379,95.084 C182.299,94.954 182.261,94.865 182.215,94.733 C182.194,94.664 182.176,94.594 182.16,94.523 C182.157,94.512 182.156,94.508 182.154,94.5 C182.156,94.491 182.156,94.477 182.156,94.452 C182.132,93.598 180.794,93.598 180.83,94.452 C180.85,94.912 181.017,95.351 181.249,95.745 C181.481,96.14 182.037,96.745 182.564,96.528 C182.898,96.392 183.107,96.038 182.905,95.688" id="Fill-47" fill="#36211D"></path>
                <path d="M142.911,44.096 C141.17,41.839 139.139,40.02 136.892,38.291 C136.744,38.18 136.523,38.401 136.637,38.548 C138.269,40.671 140.069,42.669 141.669,44.823 C142.464,45.895 142.969,46.959 142.331,48.23 C141.789,49.304 140.923,50.184 140.274,51.187 C138.768,53.51 136.458,55.243 135.331,57.829 C134.234,60.347 134.758,62.791 135.863,65.199 C136.373,66.312 138.259,65.514 137.841,64.366 C136.854,61.655 136.88,59.2 138.542,56.788 C140.108,54.521 141.659,52.244 143.2,49.961 C144.61,47.874 144.428,46.064 142.911,44.096" id="Fill-48" fill="#36211D"></path>
                <path d="M160.872,47.062 C160.372,45.28 159.539,43.656 158.51,42.129 C157.334,40.38 156.37,38.512 155.207,36.756 C154.548,35.764 153.937,34.723 153.488,33.619 C153.124,32.716 153.361,31.234 153.521,30.318 C153.872,28.316 154.956,26.542 156.18,24.958 C156.591,24.426 155.859,23.67 155.432,24.207 C153.222,26.976 151.625,30.208 151.93,33.83 C152.098,35.839 153.892,37.605 154.751,39.332 C155.64,41.121 156.839,42.715 157.787,44.466 C159.781,48.157 160.153,52.726 158.656,56.635 C157.933,58.53 156.873,60.328 155.826,62.058 C154.889,63.607 153.706,65.161 153.402,66.984 C153.253,67.888 154.185,68.442 154.896,67.854 C156.21,66.775 157.069,65.216 157.925,63.775 C158.934,62.076 159.868,60.345 160.583,58.501 C162.019,54.82 161.927,50.835 160.872,47.062" id="Fill-49" fill="#36211D"></path>
                <path d="M276.851,102.515 C276.554,102.475 276.26,102.431 275.966,102.381 C276.063,102.309 276.153,102.223 276.236,102.12 C276.426,101.884 276.565,101.642 276.667,101.393 C276.689,101.499 276.71,101.61 276.735,101.723 C276.791,101.971 276.85,102.219 276.904,102.467 C276.886,102.483 276.867,102.498 276.851,102.515 Z M269.908,96.695 C269.708,96.736 269.541,96.867 269.435,97.031 C269.154,96.646 268.882,96.251 268.553,95.934 C268.521,95.904 268.49,95.878 268.456,95.851 C268.485,95.845 268.516,95.84 268.544,95.837 C269.313,95.75 270.019,95.776 270.777,95.944 C270.797,95.948 270.818,95.955 270.839,95.959 C270.45,96.053 270.101,96.338 269.908,96.695 Z M266.217,95.627 C266.073,95.521 265.93,95.413 265.788,95.301 C265.461,95.045 265.085,95.248 265.032,95.551 C264.778,95.347 264.529,95.136 264.293,94.904 C264.184,94.796 264.078,94.684 263.974,94.569 C264.152,94.63 264.328,94.689 264.506,94.748 C265.152,94.964 265.792,95.136 266.444,95.271 C266.348,95.383 266.275,95.502 266.217,95.627 Z M264.237,80.656 C264.133,80.759 264.028,80.86 263.923,80.964 C263.388,80.767 262.838,80.632 262.282,80.575 C262.201,80.523 262.124,80.471 262.047,80.415 C262.441,80.436 262.837,80.461 263.23,80.483 C263.611,80.505 263.974,80.528 264.32,80.572 C264.292,80.601 264.264,80.628 264.237,80.656 Z M257.912,80.803 C258.048,80.687 258.231,80.609 258.435,80.554 C258.464,80.829 258.583,81.102 258.816,81.329 C258.901,81.415 258.991,81.5 259.082,81.588 C258.682,81.341 258.291,81.08 257.912,80.803 Z M254.867,55.447 C254.948,55.398 255.021,55.34 255.091,55.277 C255.113,55.453 255.148,55.626 255.193,55.796 C255.084,55.679 254.977,55.563 254.867,55.447 Z M254.109,58.137 C254.193,58.038 254.272,57.935 254.349,57.826 C254.522,58.013 254.691,58.202 254.862,58.39 C254.624,58.29 254.375,58.217 254.109,58.137 Z M242.34,35.548 C242.263,35.015 242.193,34.475 242.132,33.922 C242.104,33.497 241.893,33.215 241.621,33.069 C241.652,32.919 241.683,32.769 241.713,32.62 C241.923,33.119 242.139,33.617 242.366,34.11 C242.565,34.542 242.728,35.006 242.861,35.483 C242.687,35.472 242.506,35.495 242.34,35.548 Z M241.644,47.714 C241.532,47.898 241.534,48.126 241.61,48.328 C241.464,48.389 241.316,48.447 241.167,48.5 C240.925,48.587 240.681,48.669 240.438,48.747 C240.765,48.352 241.018,47.867 241.169,47.265 C241.186,47.205 241.192,47.143 241.199,47.082 C241.286,47.098 241.374,47.114 241.459,47.132 C241.59,47.159 241.716,47.195 241.844,47.235 C241.794,47.395 241.748,47.541 241.644,47.714 Z M241.398,42.263 C241.437,42.474 241.463,42.688 241.469,42.906 C241.304,42.776 241.138,42.646 240.974,42.516 C241.12,42.467 241.261,42.383 241.398,42.263 Z M234.244,47.738 C234.187,47.883 234.155,48.02 234.146,48.155 C233.788,48.144 233.463,48.136 233.202,48.146 C233.202,48.15 233.204,48.156 233.204,48.161 C232.407,48.176 232.045,48.966 232.237,49.573 C231.708,49.487 231.186,49.373 230.679,49.222 C230.969,49.107 231.243,48.953 231.499,48.761 C231.857,48.493 232.011,48.35 232.443,48.223 C233.054,48.042 233.663,47.861 234.271,47.68 C234.264,47.699 234.253,47.717 234.244,47.738 Z M233.798,32.882 C233.933,32.604 234.036,32.31 234.116,32.002 C234.128,32.358 234.133,32.714 234.136,33.07 C234.069,33.091 234,33.117 233.937,33.149 C233.926,33.126 233.917,33.103 233.905,33.08 C233.877,33.019 233.84,32.953 233.798,32.882 Z M232.429,36.17 C232.537,36.145 232.634,36.105 232.725,36.063 C232.724,36.103 232.725,36.145 232.723,36.186 C232.72,36.26 232.729,36.329 232.738,36.395 C232.635,36.319 232.532,36.245 232.429,36.17 Z M232.114,26.215 C232.157,26.069 232.224,25.947 232.329,25.871 C232.331,25.87 232.332,25.868 232.337,25.865 C232.338,25.877 232.341,25.891 232.343,25.903 C232.396,26.169 232.431,26.438 232.462,26.706 C232.453,26.838 232.438,26.971 232.429,27.102 C232.361,26.784 232.26,26.483 232.114,26.215 Z M222.484,29.117 C222.438,29.087 222.392,29.057 222.345,29.027 C222.372,28.988 222.4,28.949 222.425,28.91 C222.54,28.908 222.628,28.918 222.703,28.938 C222.628,28.997 222.558,29.056 222.484,29.117 Z M219.209,32.471 C218.317,32.967 217.331,33.121 216.316,33.189 C216.154,33.202 215.99,33.206 215.827,33.209 C216.018,32.851 216.27,32.528 216.557,32.234 C216.727,32.489 217.006,32.668 217.351,32.648 C218.188,32.601 218.91,32.289 219.563,31.85 C219.699,31.832 219.833,31.81 219.968,31.786 C220.024,31.853 220.083,31.915 220.154,31.967 C219.836,32.131 219.521,32.297 219.209,32.471 Z M212.795,22.24 C212.711,22.234 212.624,22.237 212.542,22.25 C212.621,22.093 212.697,21.931 212.761,21.764 C212.788,21.698 212.801,21.632 212.809,21.567 C213.038,21.64 213.216,21.757 213.361,21.905 C213.169,22.01 212.981,22.121 212.795,22.24 Z M207.263,25.604 C207.214,25.603 207.167,25.602 207.119,25.602 C206.765,25.598 206.413,25.595 206.061,25.591 C206.068,25.584 206.075,25.578 206.083,25.571 C206.127,25.571 206.175,25.566 206.222,25.559 C206.467,25.519 206.643,25.433 206.842,25.285 C206.91,25.234 206.96,25.177 207,25.115 C207.204,24.997 207.409,24.88 207.614,24.764 C207.458,25.021 207.336,25.299 207.263,25.604 Z M190.785,9.161 C190.708,9.046 190.632,8.933 190.555,8.818 C190.841,9.042 191.125,9.272 191.397,9.511 C191.19,9.399 190.985,9.282 190.785,9.161 Z M262.709,57.966 C262.766,59.072 262.825,60.18 262.879,61.286 C262.806,61.224 262.734,61.16 262.663,61.098 C262.613,61.055 262.581,61.03 262.556,61.015 C262.563,60.981 262.561,60.915 262.538,60.792 C262.361,59.893 262.518,58.896 262.709,57.966 Z M273.238,71.578 C273.253,71.009 273.307,70.48 273.398,69.972 C273.402,70.062 273.407,70.154 273.411,70.245 C273.394,70.648 273.385,71.051 273.374,71.456 C273.302,71.558 273.257,71.689 273.253,71.849 C273.247,72.262 273.236,72.708 273.229,73.169 C273.222,72.637 273.225,72.106 273.238,71.578 Z M283.586,82.158 C283.608,82.088 283.631,82.018 283.653,81.95 C283.821,82.768 283.95,83.592 284.057,84.421 C283.916,84.268 283.715,84.168 283.516,84.177 C283.482,83.5 283.507,82.825 283.586,82.158 Z M284.285,86.443 C284.138,86.288 283.949,86.175 283.745,86.132 C283.731,86.049 283.72,85.964 283.708,85.88 C283.865,85.667 284.016,85.45 284.154,85.22 C284.201,85.627 284.244,86.035 284.285,86.443 Z M292.177,158.829 C292.049,153.51 291.576,148.169 290.723,142.916 C290.548,141.863 290.361,140.813 290.155,139.766 C290.067,138.962 289.968,138.158 289.849,137.353 C289.411,134.41 288.909,131.482 288.294,128.57 C287.075,122.773 285.252,117.125 283.561,111.455 C282.394,107.543 281.202,103.641 279.943,99.758 C280.807,100.444 281.962,100.641 282.7,99.511 C283.199,98.754 283.309,97.761 283.288,96.82 C284.062,95.088 283.734,93.304 283.593,91.415 C283.577,91.188 283.543,90.851 283.524,90.478 C283.88,90.489 284.233,90.339 284.454,90.073 C284.46,91.087 284.44,92.101 284.426,93.112 C284.396,95.061 284.198,97.005 283.538,98.851 C283.288,99.548 284.328,99.927 284.694,99.338 C285.17,98.57 285.656,97.737 285.865,96.849 C286.078,95.929 286.131,94.974 286.14,94.033 C286.164,91.777 286.103,89.5 285.892,87.254 C285.708,85.3 285.468,83.259 284.969,81.358 C284.435,79.326 283.68,77.366 283.592,75.246 C283.561,74.505 282.447,74.5 282.441,75.246 C282.425,76.693 282.687,78.084 283.035,79.47 C282.743,79.458 282.446,79.582 282.246,79.89 C281.644,80.822 281.117,82.232 280.561,83.362 C279.764,84.981 279.063,86.664 278.494,88.373 C277.989,89.895 277.648,91.478 277.878,93.08 C277.928,93.413 278.033,93.737 278.188,94.031 C278.182,94.175 278.176,94.319 278.175,94.463 C278.154,94.405 278.137,94.348 278.115,94.292 C276.616,89.962 274.807,85.746 272.784,81.636 C273.291,82.058 273.962,82.252 274.845,82.067 C275.168,81.999 275.479,81.725 275.622,81.412 C275.946,81.62 276.332,81.713 276.754,81.697 C276.925,82.254 277.853,82.232 277.972,81.642 C278.043,81.296 278.098,80.952 278.15,80.608 C278.285,80.201 278.335,79.75 278.354,79.382 C278.371,79.049 278.371,78.707 278.366,78.359 C278.412,77.498 278.425,76.629 278.431,75.751 C278.441,73.637 278.332,71.531 277.989,69.442 C277.688,67.631 277.059,65.84 276.374,64.138 C276.051,63.333 275.669,62.557 275.186,61.84 C274.787,61.247 274.178,60.725 274.099,59.96 C274.006,59.073 272.633,59.041 272.688,59.96 C272.771,61.4 273.82,62.421 274.436,63.646 C274.805,64.379 275.117,65.177 275.384,65.996 C275.014,65.882 274.549,66.041 274.364,66.404 C274.143,66.166 273.717,66.111 273.482,66.475 C273.257,66.826 273.039,67.189 272.833,67.56 C272.264,67.68 271.788,68.129 271.347,68.478 C270.632,69.042 270.358,70.126 270.211,71.1 C269.745,71.726 269.456,72.407 269.375,73.256 C269.27,74.354 269.721,75.551 270.221,76.554 C270.238,76.625 270.25,76.695 270.267,76.766 C268.911,74.242 267.482,71.725 265.936,69.293 C266.085,68.997 266,68.549 265.615,68.485 C265.541,68.475 265.47,68.47 265.4,68.462 C264.369,66.879 263.284,65.335 262.138,63.854 C262.421,64.049 262.72,64.217 263.034,64.344 C263.313,65.437 264.989,65.506 265.516,64.54 C265.525,64.62 265.534,64.701 265.545,64.781 C265.627,65.381 266.25,65.635 266.798,65.55 C267.077,65.749 267.502,65.744 267.712,65.374 C269.618,62.032 269.225,57.962 268.191,54.396 C267.674,52.615 266.799,51.092 265.877,49.505 C264.76,47.587 263.229,45.392 261.288,44.232 C260.87,43.89 260.137,44.397 260.455,44.961 C261.454,46.732 262.815,48.285 263.845,50.051 C263.278,50.019 262.687,50.485 262.917,51.14 C262.926,51.165 262.933,51.189 262.942,51.216 C262.047,52.038 261.861,53.931 261.539,54.897 C261.083,56.269 260.571,57.62 260.333,59.053 C260.199,59.865 260.099,60.751 260.285,61.546 C259.071,60.082 257.823,58.651 256.539,57.248 C256.731,57.218 256.914,57.124 257.022,56.973 C257.26,57.261 257.741,57.342 258.014,57.034 C259.276,55.591 259.084,53.05 258.866,51.281 C258.592,49.065 257.843,46.953 256.931,44.925 C256.12,43.117 255.188,41.331 254.03,39.723 C253.419,38.875 252.819,38.03 252.302,37.123 C252.063,36.708 251.821,36.481 251.434,36.203 C251.177,36.018 250.465,35.733 250.36,35.416 C250.101,34.61 248.82,34.723 248.848,35.62 C248.874,36.387 249.373,36.862 249.919,37.338 C250.682,38.002 251.054,38.902 251.593,39.751 C251.71,39.936 251.831,40.119 251.951,40.302 C251.767,40.407 251.605,40.553 251.48,40.715 C250.569,41.903 251.208,44.125 251.295,45.478 C251.331,45.997 251.328,46.503 251.358,47.011 C251.311,48.12 251.247,49.228 251.236,50.338 C251.231,50.818 251.464,51.151 251.787,51.335 C251.807,51.684 251.843,52.028 251.902,52.369 C251.363,51.819 250.819,51.271 250.278,50.723 C248.017,48.446 245.651,46.326 243.197,44.305 C243.303,44.271 243.408,44.22 243.509,44.148 C243.809,43.933 244.048,43.706 244.241,43.466 C244.309,43.736 244.382,44.009 244.456,44.285 C244.622,44.908 245.563,44.918 245.722,44.285 C246.551,41.029 245.622,37.486 244.606,34.351 C244.111,32.829 243.288,31.36 242.601,29.912 C242.28,29.235 241.95,28.563 241.606,27.897 C241.397,27.496 241.229,27.188 240.89,26.883 C240.562,26.585 240.161,26.269 240.016,25.836 C239.793,25.179 238.858,25.305 238.82,25.997 C238.787,26.62 239.042,27.117 239.412,27.606 C239.927,28.282 240.233,28.977 240.551,29.763 C240.673,30.062 240.79,30.36 240.911,30.659 C240.577,30.516 240.169,30.548 239.798,30.894 C238.027,32.54 237.835,35.561 238.481,37.783 C238.593,38.176 238.78,38.582 239.023,38.974 C239.036,39.854 239.094,40.62 239.19,41.135 C238.515,40.621 237.834,40.111 237.147,39.604 C236.062,38.801 234.967,38.006 233.871,37.214 C234.071,37.199 234.266,37.128 234.429,36.992 C234.437,37.001 234.44,37.01 234.446,37.018 C234.667,37.358 235.136,37.358 235.357,37.018 C235.753,36.409 235.714,35.687 235.674,34.981 C235.728,34.942 235.779,34.898 235.828,34.851 C236.025,34.652 236.023,34.324 235.828,34.126 C235.764,34.063 235.695,34.008 235.625,33.958 C235.592,33.193 235.549,32.426 235.484,31.663 C235.344,29.98 235.054,28.288 234.587,26.665 C234.424,26.104 234.216,25.568 233.971,25.055 C233.955,24.989 233.939,24.921 233.922,24.856 C233.623,23.706 232.994,22.831 232.361,21.85 C231.948,21.209 231.38,20.564 230.614,20.516 C230.081,19.965 229.53,19.426 228.984,18.896 C228.58,18.5 227.97,19.109 228.366,19.514 C229.377,20.554 230.394,21.604 231.273,22.74 C231.346,22.947 231.412,23.141 231.477,23.299 C231.611,23.632 231.748,23.939 231.974,24.223 C232.052,24.324 232.123,24.616 232.185,24.938 C232.073,24.911 231.947,24.921 231.812,24.991 C231.781,25.006 231.753,25.024 231.722,25.042 C231.663,24.732 231.589,24.431 231.479,24.15 C231.25,23.552 230.545,23.701 230.414,24.157 C230.409,24.155 230.401,24.152 230.396,24.15 C230.263,24.53 230.233,24.947 230.243,25.367 C229.181,25.912 228.489,28.057 228.32,28.84 C228.005,30.31 228.027,31.956 228.575,33.364 C227.47,32.549 226.365,31.734 225.242,30.947 C226.849,29.885 228.116,28.479 227.847,26.479 C227.806,26.167 227.295,26.187 227.236,26.479 C227.004,27.645 226.171,28.562 225.13,29.312 C225.295,28.676 225.069,28.05 224.641,27.572 C224.893,27.286 224.846,26.719 224.477,26.563 C224.255,26.469 224.022,26.4 223.781,26.353 C224.24,25.989 224.549,25.55 224.755,25.064 C224.908,25.064 225.061,25.044 225.204,25.002 C225.247,25.192 225.296,25.38 225.352,25.567 C225.496,26.049 226.197,26.06 226.336,25.567 C227.097,22.866 225.93,19.685 224.746,17.258 C224.106,15.942 223.284,14.721 222.395,13.561 C221.951,12.984 221.487,12.424 221.012,11.875 C220.752,11.575 220.486,11.284 220.22,10.996 C220.043,10.806 219.513,10.429 219.516,10.147 C219.522,9.247 218.388,8.789 217.758,9.419 C217.124,10.053 217.585,11.18 218.486,11.177 C218.877,11.176 219.626,12.315 219.875,12.596 C220.344,13.131 220.791,13.682 221.212,14.253 C221.865,15.135 222.448,16.068 222.966,17.036 C222.888,17.086 222.814,17.149 222.745,17.229 C222.745,17.132 222.745,17.037 222.741,16.94 C222.728,16.411 222.353,16.138 221.955,16.114 C221.93,15.959 221.906,15.806 221.877,15.652 C221.776,15.094 220.852,15.094 220.752,15.652 C220.55,16.786 220.449,17.943 220.383,19.104 C220.358,19.216 220.344,19.33 220.335,19.448 C220.256,20.69 220.197,21.922 220.197,23.168 C220.175,23.501 220.288,23.756 220.47,23.938 C220.623,24.784 220.954,25.585 221.573,26.307 C221.598,26.334 221.623,26.358 221.648,26.383 C220.84,26.526 220.027,26.789 219.285,27.084 C217.849,26.172 216.411,25.265 214.974,24.358 C216.072,23.412 216.938,22.372 217.766,21.144 C218.031,20.75 217.504,20.225 217.111,20.49 C216.898,20.634 216.69,20.78 216.483,20.928 C216.219,20.942 215.941,20.908 215.689,20.956 C215.287,20.394 214.712,19.923 214.172,19.641 C214.158,19.634 214.146,19.63 214.135,19.625 C214.201,19.42 214.232,19.199 214.214,18.967 C214.294,18.671 214.282,18.342 214.133,18.019 C214.555,18.307 215.237,18.154 215.204,17.506 C215.051,14.578 213.225,12.215 211.511,9.954 C210.326,8.389 208.758,6.058 206.598,5.989 C206.383,5.983 206.218,6.049 206.099,6.153 C205.809,6.036 205.529,5.91 205.229,5.722 C204.639,5.357 203.968,5.118 203.378,4.752 C203.095,4.578 202.687,4.941 202.899,5.229 C203.556,6.115 204.561,7.105 205.562,7.573 C206.483,8.004 207.082,8.614 207.628,9.401 C207.625,9.409 207.622,9.415 207.618,9.421 C207.142,10.49 207.105,11.623 207.304,12.739 C207.257,13.093 207.241,13.437 207.244,13.706 C207.258,15.354 207.666,17.465 208.983,18.586 C209.411,18.951 209.976,19.201 210.545,19.227 C210.61,19.296 210.679,19.357 210.746,19.424 C210.657,19.448 210.566,19.473 210.477,19.503 C209.829,19.707 209.219,20.007 208.646,20.375 L207.109,19.413 C206.408,18.971 205.667,18.583 204.91,18.223 C205.289,17.999 205.653,17.751 205.993,17.467 C206.49,17.055 206.09,16.155 205.464,16.194 C205.203,16.212 204.94,16.241 204.681,16.281 C204.613,16.048 204.357,15.952 204.146,16.072 C204.144,15.993 204.136,15.915 204.126,15.835 C204.573,16.043 205.013,15.514 204.926,15.078 C204.677,13.794 203.865,12.732 203.093,11.71 C202.226,10.563 201.286,9.479 200.308,8.425 C198.406,6.377 196.313,4.544 194.142,2.792 C193.639,2.387 192.758,2.597 192.783,3.354 C192.77,2.961 192.804,3.183 192.689,3.401 C192.334,4.083 192.77,4.952 193.579,4.952 C193.741,4.952 193.888,4.915 194.016,4.852 C195.001,5.779 195.963,6.727 196.907,7.696 C196.875,7.721 196.842,7.745 196.814,7.772 C196.413,7.563 195.819,7.703 195.643,8.238 C194.986,10.229 196.141,12.325 197.287,13.894 C197.708,14.469 198.173,15.027 198.677,15.552 C197.509,15.092 196.329,14.657 195.14,14.247 C195.155,14.21 195.173,14.17 195.186,14.131 C195.26,14.075 195.328,14.009 195.383,13.937 C196.304,12.735 195.328,10.745 194.588,9.69 C193.683,8.4 192.406,7.426 191.139,6.514 C189.629,5.431 188.26,4.234 186.659,3.267 C185.925,2.823 185.172,2.407 184.44,1.958 C183.566,1.419 182.51,1.174 181.699,0.518 C180.901,-0.127 179.813,0.893 180.55,1.664 C181.009,2.14 181.544,2.534 182.111,2.896 C182.461,5.051 184.346,6.373 185.636,8.055 C186.465,9.139 187.209,10.209 187.864,11.414 C187.988,11.642 188.117,11.87 188.249,12.099 C187.541,11.809 186.803,11.625 186.049,11.495 C185.307,11.365 184.554,11.305 183.799,11.275 C183.986,10.8 184.082,10.264 184.112,9.854 C184.161,9.137 184.154,8.456 183.563,7.955 C182.946,7.43 182.212,7.081 181.449,6.825 C181.318,6.783 181.183,6.754 181.046,6.736 C181.012,6.73 180.981,6.726 180.953,6.721 C180.615,6.522 180.256,6.358 179.899,6.2 C179.147,5.866 178.375,5.6 177.583,5.388 C176.208,5.023 174.698,4.94 173.381,5.526 C173.333,5.546 173.292,5.578 173.254,5.611 C173.219,5.609 173.182,5.608 173.15,5.606 C170.333,5.504 167.519,5.705 164.711,5.829 C164.25,5.85 164.249,6.525 164.711,6.542 C165.232,6.562 165.754,6.575 166.279,6.583 C166.156,6.677 166.176,6.919 166.352,6.956 C167.691,7.238 169.047,7.342 170.409,7.46 C170.95,7.509 171.463,7.567 171.964,7.646 C172.357,9.203 174.249,9.634 175.668,9.919 C175.733,9.931 175.798,9.943 175.864,9.955 C176.208,10.346 176.646,10.682 177.033,10.992 C177.88,11.673 178.748,12.352 179.737,12.819 C180.667,13.256 181.79,13.494 182.743,12.984 C182.98,12.857 183.168,12.691 183.314,12.501 C183.761,12.528 184.207,12.564 184.652,12.616 C185.705,12.739 186.629,13.091 187.585,13.421 C186.09,13.889 184.742,14.762 183.234,15.188 C183.125,14.702 182.467,14.719 182.402,15.243 C182.383,15.386 182.364,15.531 182.337,15.675 C182.269,16.027 182.484,16.267 182.824,16.312 C183.405,16.389 183.962,16.368 184.516,16.284 C184.635,16.454 184.828,16.565 185.088,16.541 C185.088,16.541 185.09,16.54 185.092,16.54 C185.942,16.644 186.75,16.459 187.557,16.231 C187.766,16.215 187.992,16.189 188.22,16.149 C188.357,16.256 188.544,16.296 188.705,16.186 C189.021,15.972 189.265,15.815 189.535,15.734 C189.75,15.7 189.964,15.679 190.182,15.672 C190.536,15.699 190.795,15.552 190.954,15.327 C191.18,15.456 191.421,15.549 191.671,15.62 C190.816,15.827 189.956,16.19 189.246,16.401 C187.752,16.844 186.333,16.982 184.825,16.96 C184.8,16.959 184.775,16.959 184.75,16.959 C184.758,16.849 184.706,16.733 184.583,16.714 C184.113,16.635 183.892,16.66 183.667,16.918 C182.623,16.788 181.561,16.314 180.593,15.992 C179.494,15.625 178.354,15.288 177.213,15.055 C176.969,15.005 176.872,15.354 177.111,15.431 C179.321,16.141 181.326,17.59 183.635,17.981 C183.646,17.987 183.654,17.996 183.666,18.002 C185.254,18.971 187.115,18.897 188.885,18.579 C189.807,18.411 190.731,18.17 191.636,17.917 C192.508,17.67 193.472,17.616 194.104,16.902 C194.413,16.556 194.399,15.969 193.954,15.731 C193.906,15.704 193.856,15.686 193.807,15.664 C193.904,15.634 193.994,15.585 194.078,15.528 C194.983,15.855 195.884,16.197 196.776,16.556 C196.869,16.592 196.958,16.63 197.049,16.667 C196.708,16.953 196.405,17.289 196.148,17.661 C195.517,17.983 194.861,18.244 194.145,18.336 C193.058,18.477 193,20.001 194.145,20.071 C194.526,20.095 194.894,20.066 195.254,20 C195.239,20.111 195.229,20.225 195.224,20.337 C195.208,20.685 195.384,21.019 195.648,21.243 C195.31,21.25 194.969,21.246 194.621,21.242 C192.943,21.217 191.292,21.164 189.617,21.193 C189.258,21.199 189.262,21.731 189.617,21.744 C192.991,21.888 196.093,23.64 199.425,22.174 C200.765,21.583 201.997,20.766 203.013,19.708 C203.105,19.613 203.201,19.51 203.296,19.402 C203.752,19.621 204.209,19.839 204.665,20.066 C205.527,20.492 206.371,20.974 207.2,21.486 C206.139,22.436 205.2,23.563 204.331,24.64 C203.939,24.642 203.55,24.905 203.515,25.432 C203.512,25.477 203.509,25.521 203.506,25.566 C203.08,25.552 202.658,25.514 202.234,25.42 C201.419,25.235 200.645,25.011 199.805,24.967 C198.48,24.9 198.479,26.983 199.805,27.028 C200.659,27.056 201.476,27.342 202.317,27.482 C203.179,27.624 204.073,27.553 204.945,27.545 C206.688,27.529 208.537,27.714 210.222,27.195 C211.371,26.842 212.418,26.248 213.401,25.562 C214.69,26.394 215.984,27.22 217.277,28.045 C215.596,29.06 214.031,30.759 214.088,32.79 C214.094,32.933 214.157,33.049 214.253,33.123 C213.815,33.074 213.377,33.006 212.945,32.921 C212.522,32.839 212.019,32.946 211.59,32.958 C210.878,32.981 210.218,32.832 209.567,32.553 C209.248,32.416 208.963,32.872 209.288,33.029 C210.213,33.474 211.192,33.664 212.207,33.775 C213.59,33.923 214.912,34.314 216.316,34.37 C217.22,34.405 218.582,34.41 219.395,33.945 C220.133,33.524 220.904,33.164 221.673,32.802 C222.21,32.551 222.814,32.277 223.431,31.97 L224.23,32.481 C225.474,33.275 226.619,34.298 227.806,35.176 C228.055,35.36 228.303,35.541 228.553,35.725 C228.14,35.688 227.702,35.716 227.275,35.732 C226.05,35.781 224.972,35.936 223.874,36.551 C223.279,36.883 222.659,37.655 221.97,37.755 C221.258,37.857 220.761,38.485 220.096,38.705 C219.807,38.798 219.769,39.254 220.096,39.33 C220.453,39.41 220.866,39.495 221.228,39.395 C221.454,39.331 221.682,39.31 221.909,39.29 C221.835,39.583 221.869,39.906 222.025,40.159 C222.302,40.606 222.678,40.906 223.11,41.106 C222.402,41.07 221.701,40.995 221.032,40.865 C219.509,40.57 218.402,39.248 217.065,38.541 C216.438,38.209 215.883,39.153 216.507,39.493 C217.845,40.22 218.913,41.48 220.357,41.987 C222.01,42.571 223.867,42.625 225.601,42.624 C227.087,42.623 228.45,42.263 229.751,41.727 C229.798,41.713 229.843,41.7 229.892,41.686 C230.966,41.358 232.009,40.985 232.671,40.255 C233.061,40.034 233.45,39.808 233.838,39.585 C236.096,41.236 238.337,42.905 240.533,44.641 C240.32,44.633 240.114,44.628 239.928,44.621 C238.815,44.582 237.709,44.665 236.599,44.685 C235.95,44.697 235.218,45.118 234.617,45.341 C233.832,45.632 233.046,45.924 232.26,46.215 C231.583,46.467 231.037,46.628 230.53,47.15 C230.086,47.607 229.644,47.757 229.028,47.874 C228.732,47.929 228.563,48.095 228.493,48.298 C227.671,47.834 226.91,47.256 226.245,46.541 C225.746,46.002 224.95,46.805 225.441,47.343 C228.133,50.285 231.725,51.577 235.665,51.527 C237.638,51.501 239.584,51.113 241.456,50.515 C242.636,50.137 244.279,49.633 245.376,48.75 C248.194,51.333 250.855,54.09 253.467,56.882 C253.19,57.043 252.917,57.211 252.642,57.38 C252.51,57.273 252.379,57.16 252.25,57.048 C252.134,56.775 251.958,56.514 251.73,56.268 C251.687,56.22 251.637,56.179 251.593,56.134 C251.344,54.14 248.06,54.029 246.509,54.269 C245.122,54.484 243.564,54.981 242.433,55.914 C242.169,56.046 241.915,56.189 241.672,56.341 C241.246,56.606 240.85,56.91 240.545,57.297 C239.632,57.425 238.694,57.464 237.786,57.539 C237.079,57.34 236.367,57.165 235.645,57.048 C234.804,56.911 234.429,58.18 235.288,58.344 C235.751,58.435 236.209,58.542 236.663,58.662 C236.767,58.799 236.935,58.901 237.164,58.926 C237.403,58.954 237.64,58.982 237.876,59.008 C240.43,59.783 242.893,60.759 245.644,60.8 C247.748,60.83 250.155,60.685 252.081,59.724 C253.237,60.414 254.645,60.771 255.733,59.848 C255.826,59.769 255.881,59.655 255.906,59.535 C257.33,61.124 258.714,62.749 260.04,64.421 C261.162,65.835 262.185,67.317 263.16,68.829 C263.038,68.876 262.913,68.927 262.792,68.979 C262.766,68.813 262.725,68.649 262.67,68.501 C262.502,68.039 262.218,67.623 261.856,67.255 C261.829,66.835 261.526,66.431 260.939,66.363 C260.835,66.35 260.73,66.342 260.625,66.332 C259.618,65.767 258.43,65.459 257.44,65.485 C255.796,65.526 254.124,65.641 252.519,66.022 C251.93,66.022 251.342,66.022 250.75,66.021 C249.835,66.019 249.421,66.785 249.507,67.484 C249.506,67.485 249.505,67.487 249.505,67.488 C249.39,67.41 249.275,67.334 249.161,67.26 C248.231,66.662 245.922,66.972 245.7,65.453 C245.594,64.742 244.43,64.918 244.456,65.621 C244.518,67.161 246.222,68.152 247.513,68.595 C247.64,68.636 247.771,68.67 247.903,68.697 L248.083,68.727 C248.328,68.7 248.383,68.728 248.252,68.813 C248.714,69.155 249.143,69.536 249.593,69.889 C250.51,70.604 251.44,71.283 252.489,71.788 C253.598,72.322 254.64,72.339 255.836,72.463 C257.01,72.585 258.159,72.701 259.339,72.586 C260.566,72.466 261.634,72.012 262.735,71.486 C263.262,71.236 263.801,70.963 264.312,70.651 C264.549,71.033 264.785,71.417 265.02,71.801 C266.952,74.965 268.752,78.212 270.404,81.531 C270.184,81.309 269.947,81.088 269.743,80.823 C268.262,78.885 266.264,77.894 263.845,77.876 C262.136,77.866 257.554,77.662 256.442,79.606 C255.929,79.152 255.426,78.716 254.829,78.354 C254.511,78.162 253.965,77.829 253.582,77.843 C253.224,77.856 253.103,77.693 252.799,77.473 C252.248,77.066 251.437,77.874 251.847,78.425 C252.049,78.699 252.255,79.033 252.563,79.202 C252.855,79.36 253.204,79.346 253.457,79.509 C254.268,80.026 254.879,80.731 255.556,81.399 C257.072,82.891 258.957,84.18 260.902,85.04 C262.916,85.934 265.256,86.517 267.458,86.61 C269.134,86.681 270.981,85.637 271.614,84.031 C272.086,85.04 272.551,86.055 272.994,87.08 C274.32,90.14 275.452,93.275 276.494,96.442 C276.242,96.19 275.987,95.941 275.728,95.696 C275.169,95.167 274.571,94.917 273.861,94.634 C272.603,94.132 271.237,93.856 269.88,93.878 C269.362,93.886 268.615,94.03 267.922,94.303 C267.008,94.224 266.097,94.083 265.218,93.837 C264.569,93.656 263.853,93.492 263.146,93.284 C263.12,93.217 263.095,93.151 263.072,93.082 C262.967,92.75 262.676,92.581 262.558,92.267 C262.417,91.902 262.453,91.478 262.447,91.093 C262.422,89.881 260.585,89.881 260.566,91.093 C260.561,91.4 260.546,91.728 260.553,92.055 C260.346,91.884 260.15,91.699 259.979,91.487 C259.802,91.273 259.452,91.552 259.598,91.782 C259.896,92.259 260.266,92.647 260.679,92.979 C260.72,93.124 260.771,93.266 260.842,93.398 C261.044,93.782 261.123,93.846 261.205,94.098 C261.363,94.578 261.614,95.027 261.889,95.448 C262.283,96.042 262.766,96.568 263.297,97.046 C263.425,97.779 263.697,98.445 264.178,99.158 C264.935,100.279 265.739,101.417 266.73,102.338 C267.692,103.234 268.783,103.884 270.033,104.29 C270.596,104.473 271.184,104.547 271.766,104.625 C272.479,104.718 272.957,104.489 273.538,104.198 C275.032,104.647 276.594,104.625 278.199,104.397 C279.576,108.717 281.521,112.863 282.392,117.327 C283.531,123.167 285.327,128.891 286.624,134.705 C287.033,136.54 287.397,138.379 287.721,140.224 C287.754,140.424 287.788,140.623 287.822,140.822 C287.835,140.895 287.848,140.968 287.862,141.041 C289.292,149.521 289.813,158.108 289.372,166.726 C288.331,187.086 282.136,206.962 271.836,224.522 C268.398,230.383 264.536,236.011 260.264,241.299 C259.488,242.26 260.766,243.626 261.653,242.685 C275.558,227.92 284.518,208.84 289.042,189.186 C291.325,179.249 292.42,169.024 292.177,158.829 Z" id="Fill-50" fill="#A45633"></path>
                <path d="M15.669,195.48 C15.964,195.52 16.26,195.564 16.552,195.614 C16.454,195.687 16.365,195.773 16.283,195.876 C16.093,196.109 15.954,196.353 15.85,196.603 C15.828,196.494 15.808,196.385 15.782,196.271 C15.727,196.024 15.669,195.775 15.614,195.526 C15.632,195.512 15.651,195.497 15.669,195.48 Z M22.61,201.3 C22.81,201.259 22.978,201.127 23.084,200.963 C23.363,201.348 23.636,201.744 23.966,202.06 C23.999,202.091 24.028,202.118 24.063,202.145 C24.032,202.148 24.002,202.154 23.973,202.158 C23.203,202.245 22.5,202.219 21.743,202.051 C21.72,202.048 21.699,202.04 21.679,202.037 C22.068,201.941 22.417,201.656 22.61,201.3 Z M26.3,202.368 C26.444,202.473 26.589,202.582 26.73,202.693 C27.057,202.95 27.433,202.747 27.486,202.444 C27.74,202.647 27.989,202.859 28.224,203.091 C28.335,203.199 28.442,203.313 28.543,203.427 C28.367,203.366 28.189,203.306 28.012,203.247 C27.368,203.03 26.724,202.859 26.077,202.725 C26.167,202.611 26.243,202.493 26.3,202.368 Z M28.282,217.338 C28.385,217.235 28.489,217.134 28.595,217.031 C29.13,217.227 29.681,217.363 30.236,217.42 C30.316,217.472 30.393,217.524 30.472,217.58 C30.078,217.559 29.682,217.533 29.288,217.512 C28.907,217.491 28.543,217.467 28.197,217.423 C28.226,217.395 28.254,217.367 28.282,217.338 Z M34.607,217.191 C34.47,217.308 34.286,217.387 34.083,217.442 C34.054,217.166 33.934,216.895 33.702,216.665 C33.617,216.581 33.528,216.494 33.437,216.407 C33.835,216.654 34.228,216.916 34.607,217.191 Z M37.651,242.548 C37.569,242.597 37.497,242.653 37.426,242.717 C37.405,242.543 37.371,242.37 37.327,242.199 C37.434,242.316 37.54,242.432 37.651,242.548 Z M38.409,239.857 C38.327,239.959 38.246,240.062 38.169,240.168 C37.996,239.982 37.827,239.793 37.655,239.605 C37.893,239.705 38.144,239.779 38.409,239.857 Z M50.176,262.448 C50.256,262.98 50.325,263.521 50.386,264.073 C50.416,264.499 50.626,264.78 50.896,264.926 C50.867,265.077 50.836,265.225 50.803,265.374 C50.594,264.877 50.379,264.378 50.151,263.886 C49.952,263.453 49.791,262.991 49.656,262.512 C49.833,262.522 50.01,262.501 50.176,262.448 Z M50.874,250.281 C50.986,250.096 50.983,249.868 50.908,249.667 C51.055,249.606 51.201,249.548 51.352,249.494 C51.593,249.408 51.836,249.326 52.081,249.248 C51.753,249.644 51.501,250.127 51.35,250.729 C51.334,250.792 51.325,250.854 51.319,250.912 C51.231,250.897 51.144,250.881 51.059,250.865 C50.928,250.837 50.802,250.8 50.675,250.76 C50.724,250.601 50.771,250.454 50.874,250.281 Z M51.12,255.733 C51.083,255.521 51.056,255.308 51.049,255.089 C51.214,255.218 51.38,255.349 51.545,255.479 C51.399,255.528 51.255,255.612 51.12,255.733 Z M58.272,250.258 C58.331,250.114 58.364,249.976 58.374,249.842 C58.73,249.852 59.054,249.86 59.315,249.85 C59.314,249.846 59.314,249.839 59.313,249.834 C60.11,249.817 60.474,249.03 60.281,248.422 C60.808,248.509 61.331,248.621 61.84,248.773 C61.55,248.889 61.275,249.043 61.02,249.234 C60.66,249.504 60.506,249.645 60.075,249.773 C59.465,249.953 58.856,250.135 58.249,250.315 C58.255,250.297 58.264,250.277 58.272,250.258 Z M58.721,265.113 C58.585,265.391 58.48,265.686 58.401,265.994 C58.388,265.637 58.386,265.281 58.382,264.924 C58.449,264.904 58.517,264.878 58.581,264.844 C58.591,264.87 58.601,264.893 58.611,264.916 C58.64,264.976 58.677,265.042 58.721,265.113 Z M60.088,261.824 C59.983,261.852 59.884,261.889 59.792,261.933 C59.795,261.892 59.792,261.85 59.795,261.809 C59.796,261.736 59.79,261.667 59.779,261.601 C59.883,261.676 59.986,261.751 60.088,261.824 Z M60.404,271.78 C60.36,271.927 60.293,272.048 60.189,272.122 C60.188,272.125 60.185,272.128 60.182,272.129 C60.18,272.119 60.176,272.105 60.174,272.094 C60.123,271.826 60.086,271.557 60.056,271.29 C60.065,271.157 60.08,271.026 60.088,270.894 C60.156,271.21 60.256,271.514 60.404,271.78 Z M70.034,268.879 C70.08,268.908 70.126,268.938 70.174,268.969 C70.146,269.008 70.119,269.044 70.092,269.086 C69.976,269.087 69.888,269.077 69.816,269.059 C69.889,268.999 69.962,268.94 70.034,268.879 Z M73.308,265.524 C74.202,265.028 75.188,264.875 76.201,264.806 C76.364,264.794 76.526,264.789 76.69,264.786 C76.5,265.146 76.248,265.466 75.961,265.762 C75.79,265.506 75.512,265.327 75.166,265.346 C74.329,265.395 73.607,265.706 72.956,266.146 C72.819,266.164 72.683,266.186 72.547,266.21 C72.495,266.141 72.434,266.08 72.363,266.028 C72.68,265.865 72.996,265.698 73.308,265.524 Z M79.721,275.756 C79.809,275.761 79.894,275.76 79.974,275.744 C79.896,275.903 79.821,276.064 79.756,276.232 C79.73,276.296 79.716,276.361 79.708,276.429 C79.478,276.355 79.302,276.238 79.156,276.091 C79.349,275.985 79.537,275.876 79.721,275.756 Z M85.256,272.391 C85.303,272.391 85.352,272.394 85.399,272.394 C85.751,272.396 86.105,272.399 86.457,272.401 C86.451,272.41 86.442,272.418 86.435,272.424 C86.391,272.426 86.343,272.428 86.295,272.436 C86.049,272.476 85.875,272.563 85.673,272.71 C85.607,272.761 85.557,272.819 85.517,272.881 C85.314,273 85.109,273.115 84.904,273.231 C85.061,272.974 85.181,272.696 85.256,272.391 Z M101.733,288.835 C101.81,288.949 101.886,289.064 101.963,289.177 C101.676,288.953 101.394,288.725 101.12,288.484 C101.326,288.596 101.533,288.711 101.733,288.835 Z M29.808,240.029 C29.753,238.923 29.694,237.816 29.639,236.708 C29.711,236.772 29.783,236.835 29.856,236.899 C29.903,236.941 29.937,236.965 29.961,236.978 C29.955,237.014 29.957,237.08 29.981,237.202 C30.157,238.099 29.999,239.099 29.808,240.029 Z M19.28,226.417 C19.264,226.986 19.21,227.515 19.121,228.023 C19.117,227.932 19.112,227.841 19.105,227.75 C19.123,227.347 19.131,226.943 19.145,226.54 C19.216,226.437 19.262,226.308 19.264,226.147 C19.27,225.733 19.284,225.287 19.288,224.827 C19.298,225.358 19.294,225.89 19.28,226.417 Z M8.931,215.837 C8.909,215.906 8.886,215.977 8.867,216.045 C8.695,215.228 8.565,214.403 8.461,213.574 C8.602,213.729 8.804,213.827 9.002,213.817 C9.037,214.495 9.012,215.171 8.931,215.837 Z M8.233,211.552 C8.38,211.708 8.569,211.819 8.773,211.862 C8.788,211.947 8.797,212.031 8.81,212.116 C8.652,212.327 8.501,212.545 8.364,212.774 C8.317,212.367 8.275,211.961 8.233,211.552 Z M0.341,139.166 C0.468,144.486 0.942,149.827 1.796,155.08 C1.968,156.131 2.158,157.183 2.361,158.229 C2.451,159.032 2.552,159.838 2.671,160.643 C3.106,163.585 3.61,166.513 4.224,169.424 C5.442,175.222 7.266,180.869 8.956,186.54 C10.124,190.45 11.315,194.354 12.573,198.238 C11.712,197.55 10.555,197.354 9.818,198.481 C9.321,199.241 9.21,200.233 9.23,201.174 C8.457,202.907 8.784,204.689 8.925,206.581 C8.941,206.807 8.974,207.144 8.995,207.518 C8.639,207.505 8.284,207.655 8.064,207.921 C8.058,206.908 8.079,205.893 8.093,204.884 C8.123,202.934 8.322,200.991 8.98,199.144 C9.23,198.447 8.191,198.068 7.824,198.657 C7.346,199.425 6.862,200.257 6.654,201.145 C6.441,202.065 6.388,203.021 6.377,203.962 C6.353,206.219 6.414,208.495 6.626,210.739 C6.81,212.694 7.05,214.736 7.549,216.635 C8.084,218.669 8.838,220.629 8.927,222.75 C8.956,223.491 10.071,223.496 10.078,222.75 C10.092,221.301 9.831,219.911 9.483,218.524 C9.774,218.537 10.072,218.414 10.272,218.106 C10.874,217.172 11.402,215.763 11.958,214.632 C12.752,213.013 13.454,211.333 14.022,209.621 C14.529,208.099 14.869,206.516 14.641,204.915 C14.591,204.581 14.485,204.257 14.331,203.963 C14.337,203.819 14.34,203.676 14.343,203.531 C14.364,203.588 14.381,203.648 14.403,203.706 C15.903,208.034 17.71,212.25 19.734,216.359 C19.225,215.936 18.557,215.742 17.673,215.927 C17.35,215.995 17.038,216.271 16.896,216.583 C16.574,216.375 16.186,216.284 15.764,216.297 C15.592,215.741 14.665,215.762 14.546,216.355 C14.476,216.699 14.419,217.045 14.369,217.388 C14.233,217.795 14.182,218.246 14.164,218.612 C14.147,218.946 14.145,219.289 14.154,219.636 C14.106,220.499 14.092,221.365 14.088,222.243 C14.076,224.36 14.186,226.464 14.53,228.552 C14.83,230.365 15.458,232.156 16.145,233.858 C16.467,234.663 16.847,235.437 17.332,236.156 C17.73,236.747 18.339,237.271 18.419,238.034 C18.512,238.92 19.885,238.955 19.83,238.034 C19.748,236.594 18.698,235.575 18.082,234.349 C17.714,233.617 17.401,232.818 17.134,232 C17.504,232.112 17.968,231.954 18.154,231.59 C18.375,231.829 18.8,231.884 19.034,231.52 C19.262,231.17 19.479,230.807 19.685,230.434 C20.254,230.314 20.73,229.866 21.17,229.517 C21.885,228.954 22.16,227.87 22.307,226.895 C22.773,226.268 23.061,225.588 23.142,224.738 C23.248,223.642 22.797,222.444 22.297,221.441 C22.281,221.37 22.268,221.3 22.25,221.229 C23.606,223.753 25.036,226.27 26.583,228.702 C26.431,229 26.52,229.446 26.903,229.509 C26.976,229.521 27.047,229.525 27.117,229.533 C28.149,231.117 29.233,232.66 30.377,234.141 C30.097,233.946 29.799,233.778 29.483,233.651 C29.203,232.56 27.529,232.489 27,233.457 C26.993,233.375 26.985,233.294 26.973,233.215 C26.891,232.614 26.268,232.359 25.719,232.445 C25.439,232.248 25.017,232.252 24.805,232.62 C22.9,235.962 23.291,240.033 24.325,243.6 C24.843,245.379 25.717,246.904 26.641,248.491 C27.76,250.408 29.288,252.603 31.231,253.764 C31.648,254.104 32.382,253.599 32.063,253.035 C31.065,251.262 29.704,249.71 28.671,247.943 C29.241,247.977 29.83,247.51 29.6,246.856 C29.592,246.832 29.584,246.806 29.576,246.779 C30.472,245.958 30.656,244.065 30.979,243.098 C31.436,241.726 31.947,240.375 32.185,238.943 C32.319,238.13 32.417,237.243 32.235,236.448 C33.445,237.913 34.697,239.344 35.979,240.747 C35.786,240.778 35.604,240.873 35.496,241.023 C35.258,240.734 34.775,240.652 34.506,240.961 C33.24,242.404 33.434,244.945 33.653,246.715 C33.927,248.93 34.675,251.044 35.586,253.069 C36.399,254.877 37.328,256.664 38.488,258.271 C39.099,259.12 39.699,259.966 40.216,260.874 C40.455,261.288 40.698,261.515 41.085,261.792 C41.341,261.976 42.054,262.263 42.157,262.581 C42.416,263.386 43.698,263.273 43.669,262.374 C43.645,261.61 43.146,261.133 42.599,260.658 C41.834,259.994 41.464,259.093 40.924,258.244 C40.808,258.059 40.686,257.878 40.566,257.693 C40.75,257.587 40.913,257.441 41.036,257.28 C41.948,256.092 41.312,253.87 41.223,252.516 C41.189,251.999 41.189,251.493 41.158,250.983 C41.206,249.875 41.272,248.767 41.282,247.656 C41.286,247.177 41.053,246.844 40.732,246.662 C40.711,246.311 40.674,245.966 40.614,245.626 C41.154,246.177 41.698,246.727 42.241,247.272 C44.5,249.55 46.868,251.667 49.32,253.69 C49.215,253.726 49.11,253.774 49.01,253.845 C48.709,254.061 48.471,254.29 48.277,254.53 C48.208,254.257 48.135,253.986 48.062,253.709 C47.896,253.087 46.956,253.077 46.796,253.709 C45.967,256.966 46.896,260.51 47.911,263.645 C48.406,265.165 49.23,266.635 49.917,268.084 C50.238,268.761 50.567,269.433 50.914,270.095 C51.123,270.5 51.291,270.808 51.628,271.111 C51.957,271.41 52.355,271.727 52.502,272.16 C52.723,272.816 53.66,272.69 53.697,271.998 C53.731,271.375 53.475,270.877 53.104,270.39 C52.592,269.713 52.283,269.018 51.966,268.231 C51.845,267.934 51.727,267.634 51.607,267.337 C51.942,267.48 52.349,267.448 52.72,267.103 C54.492,265.457 54.681,262.436 54.038,260.213 C53.924,259.82 53.736,259.412 53.493,259.02 C53.482,258.142 53.422,257.375 53.329,256.861 C54.003,257.374 54.684,257.884 55.37,258.389 C56.456,259.193 57.551,259.989 58.647,260.782 C58.447,260.796 58.251,260.867 58.088,261.003 C58.081,260.996 58.078,260.986 58.071,260.978 C57.852,260.638 57.383,260.638 57.162,260.978 C56.766,261.585 56.803,262.309 56.844,263.014 C56.789,263.054 56.739,263.098 56.689,263.145 C56.493,263.343 56.493,263.671 56.689,263.868 C56.753,263.933 56.821,263.988 56.892,264.037 C56.926,264.801 56.968,265.569 57.032,266.332 C57.172,268.015 57.464,269.707 57.932,271.33 C58.094,271.892 58.302,272.427 58.547,272.939 C58.563,273.006 58.578,273.075 58.594,273.141 C58.896,274.288 59.523,275.165 60.157,276.146 C60.57,276.785 61.138,277.431 61.904,277.479 C62.437,278.031 62.987,278.568 63.535,279.101 C63.938,279.494 64.547,278.886 64.154,278.482 C63.141,277.439 62.123,276.391 61.245,275.254 C61.172,275.048 61.107,274.854 61.042,274.695 C60.906,274.364 60.768,274.055 60.544,273.773 C60.464,273.671 60.396,273.378 60.335,273.058 C60.445,273.084 60.572,273.075 60.706,273.005 C60.736,272.988 60.765,272.973 60.796,272.954 C60.854,273.262 60.929,273.565 61.037,273.845 C61.268,274.443 61.973,274.294 62.103,273.837 C62.109,273.84 62.116,273.844 62.122,273.845 C62.255,273.464 62.283,273.049 62.275,272.628 C63.337,272.083 64.03,269.938 64.199,269.155 C64.513,267.687 64.491,266.039 63.943,264.631 C65.049,265.446 66.153,266.262 67.277,267.047 C65.668,268.11 64.401,269.517 64.671,271.516 C64.714,271.829 65.223,271.811 65.28,271.516 C65.515,270.351 66.349,269.434 67.387,268.684 C67.222,269.319 67.449,269.942 67.876,270.422 C67.626,270.709 67.671,271.277 68.042,271.432 C68.262,271.526 68.496,271.594 68.736,271.643 C68.277,272.006 67.968,272.447 67.764,272.933 C67.609,272.932 67.457,272.953 67.315,272.993 C67.27,272.805 67.222,272.616 67.167,272.427 C67.022,271.946 66.32,271.936 66.182,272.427 C65.419,275.129 66.589,278.312 67.771,280.736 C68.412,282.052 69.234,283.274 70.123,284.434 C70.567,285.011 71.03,285.571 71.508,286.122 C71.765,286.42 72.031,286.709 72.299,287.001 C72.473,287.188 73.006,287.566 73.003,287.848 C72.996,288.75 74.129,289.206 74.761,288.577 C75.395,287.943 74.932,286.816 74.034,286.819 C73.641,286.819 72.891,285.68 72.643,285.399 C72.175,284.864 71.729,284.313 71.306,283.743 C70.652,282.86 70.07,281.927 69.552,280.959 C69.629,280.908 69.706,280.849 69.773,280.767 C69.775,280.862 69.775,280.959 69.778,281.056 C69.789,281.585 70.166,281.858 70.563,281.882 C70.586,282.036 70.613,282.188 70.639,282.342 C70.74,282.903 71.665,282.903 71.765,282.342 C71.968,281.21 72.069,280.054 72.135,278.891 C72.158,278.78 72.175,278.666 72.182,278.548 C72.26,277.307 72.322,276.073 72.322,274.828 C72.342,274.494 72.229,274.238 72.047,274.058 C71.894,273.212 71.565,272.41 70.945,271.688 C70.922,271.663 70.896,271.637 70.869,271.613 C71.677,271.47 72.492,271.206 73.233,270.911 C74.67,271.823 76.107,272.73 77.542,273.637 C76.445,274.584 75.58,275.625 74.751,276.851 C74.487,277.244 75.014,277.771 75.406,277.506 C75.62,277.361 75.83,277.215 76.035,277.067 C76.297,277.053 76.575,277.087 76.83,277.04 C77.231,277.603 77.805,278.072 78.347,278.354 C78.358,278.358 78.372,278.366 78.382,278.372 C78.316,278.575 78.286,278.797 78.306,279.03 C78.223,279.325 78.236,279.653 78.384,279.979 C77.964,279.688 77.281,279.842 77.314,280.49 C77.469,283.418 79.294,285.781 81.006,288.042 C82.192,289.607 83.76,291.938 85.921,292.006 C86.134,292.013 86.299,291.947 86.418,291.842 C86.709,291.96 86.99,292.084 87.289,292.271 C87.881,292.639 88.549,292.877 89.14,293.242 C89.423,293.418 89.831,293.055 89.617,292.766 C88.962,291.881 87.958,290.891 86.956,290.422 C86.035,289.99 85.435,289.381 84.889,288.593 C84.893,288.588 84.896,288.581 84.898,288.575 C85.377,287.505 85.413,286.373 85.215,285.258 C85.262,284.899 85.274,284.558 85.273,284.291 C85.261,282.641 84.853,280.531 83.535,279.408 C83.107,279.042 82.541,278.794 81.971,278.766 C81.909,278.698 81.838,278.636 81.77,278.571 C81.86,278.546 81.952,278.52 82.039,278.493 C82.69,278.286 83.297,277.986 83.872,277.62 L85.407,278.583 C86.109,279.024 86.852,279.413 87.609,279.772 C87.23,279.997 86.865,280.245 86.525,280.529 C86.03,280.941 86.428,281.841 87.053,281.799 C87.316,281.783 87.577,281.754 87.837,281.714 C87.904,281.947 88.16,282.045 88.374,281.923 C88.375,282.002 88.381,282.082 88.39,282.16 C87.945,281.952 87.506,282.482 87.59,282.916 C87.84,284.202 88.654,285.262 89.426,286.285 C90.292,287.433 91.232,288.517 92.211,289.57 C94.11,291.62 96.205,293.45 98.376,295.203 C98.878,295.61 99.761,295.397 99.735,294.639 C99.748,295.035 99.714,294.814 99.83,294.594 C100.185,293.911 99.748,293.045 98.938,293.045 C98.777,293.045 98.63,293.082 98.503,293.143 C97.519,292.214 96.555,291.269 95.611,290.298 C95.643,290.274 95.675,290.249 95.704,290.222 C96.105,290.432 96.698,290.292 96.875,289.757 C97.532,287.767 96.376,285.67 95.23,284.103 C94.81,283.527 94.343,282.968 93.84,282.446 C95.01,282.903 96.189,283.337 97.378,283.748 C97.361,283.786 97.346,283.824 97.333,283.864 C97.259,283.922 97.191,283.986 97.134,284.058 C96.214,285.259 97.191,287.25 97.929,288.304 C98.835,289.597 100.112,290.571 101.38,291.481 C102.889,292.565 104.259,293.76 105.86,294.729 C106.594,295.174 107.346,295.587 108.078,296.036 C108.953,296.576 110.007,296.821 110.819,297.478 C111.617,298.122 112.704,297.103 111.967,296.331 C111.51,295.853 110.972,295.459 110.407,295.099 C110.056,292.944 108.173,291.622 106.883,289.941 C106.052,288.855 105.307,287.787 104.653,286.582 C104.529,286.355 104.401,286.125 104.269,285.896 C104.976,286.186 105.716,286.37 106.468,286.499 C107.213,286.629 107.964,286.692 108.719,286.718 C108.531,287.196 108.435,287.73 108.407,288.14 C108.358,288.856 108.365,289.541 108.955,290.04 C109.572,290.566 110.306,290.915 111.069,291.17 C111.2,291.212 111.335,291.242 111.471,291.258 C111.506,291.264 111.536,291.269 111.565,291.273 C111.904,291.472 112.261,291.637 112.618,291.794 C113.37,292.128 114.143,292.397 114.935,292.605 C116.31,292.973 117.82,293.055 119.138,292.47 C119.184,292.448 119.224,292.417 119.263,292.385 C119.298,292.386 119.333,292.389 119.369,292.389 C122.185,292.491 124.999,292.29 127.809,292.167 C128.268,292.146 128.269,291.471 127.809,291.454 C127.286,291.434 126.763,291.419 126.24,291.412 C126.363,291.316 126.339,291.077 126.167,291.041 C124.827,290.756 123.471,290.652 122.107,290.535 C121.568,290.487 121.054,290.429 120.553,290.35 C120.16,288.793 118.27,288.362 116.848,288.075 C116.785,288.063 116.718,288.052 116.654,288.042 C116.31,287.65 115.872,287.313 115.486,287.004 C114.638,286.321 113.77,285.642 112.779,285.177 C111.851,284.739 110.729,284.499 109.774,285.011 C109.538,285.138 109.35,285.304 109.204,285.495 C108.758,285.467 108.312,285.431 107.866,285.379 C106.813,285.258 105.887,284.905 104.934,284.572 C106.428,284.107 107.777,283.234 109.284,282.805 C109.393,283.293 110.053,283.277 110.117,282.752 C110.134,282.608 110.153,282.465 110.181,282.32 C110.249,281.968 110.035,281.727 109.695,281.683 C109.114,281.606 108.556,281.627 108.001,281.711 C107.883,281.539 107.69,281.429 107.43,281.455 C107.429,281.455 107.429,281.455 107.426,281.455 C106.577,281.352 105.769,281.536 104.962,281.764 C104.753,281.781 104.525,281.807 104.297,281.846 C104.162,281.739 103.974,281.698 103.813,281.809 C103.496,282.025 103.253,282.179 102.981,282.261 C102.768,282.295 102.554,282.316 102.337,282.322 C101.981,282.296 101.723,282.444 101.565,282.667 C101.338,282.542 101.096,282.446 100.846,282.375 C101.701,282.169 102.563,281.804 103.271,281.595 C104.766,281.15 106.187,281.013 107.691,281.035 C107.717,281.035 107.743,281.035 107.767,281.035 C107.761,281.146 107.813,281.262 107.933,281.281 C108.404,281.362 108.626,281.337 108.849,281.077 C109.894,281.208 110.958,281.68 111.925,282.002 C113.025,282.371 114.165,282.708 115.302,282.94 C115.549,282.991 115.646,282.643 115.407,282.564 C113.196,281.854 111.191,280.406 108.882,280.015 C108.873,280.009 108.862,280 108.853,279.992 C107.264,279.025 105.401,279.098 103.635,279.417 C102.71,279.583 101.787,279.824 100.883,280.08 C100.008,280.325 99.046,280.38 98.414,281.093 C98.105,281.439 98.119,282.026 98.563,282.266 C98.613,282.292 98.663,282.309 98.712,282.332 C98.615,282.359 98.524,282.411 98.439,282.468 C97.536,282.142 96.633,281.798 95.741,281.441 C95.649,281.404 95.557,281.365 95.469,281.329 C95.811,281.042 96.113,280.707 96.37,280.335 C97.001,280.012 97.657,279.751 98.372,279.659 C99.459,279.518 99.517,277.995 98.372,277.922 C97.991,277.901 97.624,277.929 97.264,277.996 C97.279,277.883 97.288,277.771 97.292,277.658 C97.311,277.31 97.134,276.978 96.87,276.754 C97.207,276.746 97.549,276.75 97.895,276.754 C99.574,276.777 101.226,276.831 102.902,276.802 C103.258,276.797 103.256,276.266 102.902,276.251 C99.528,276.109 96.423,274.355 93.094,275.82 C91.753,276.413 90.521,277.229 89.504,278.286 C89.411,278.381 89.318,278.485 89.223,278.593 C88.764,278.375 88.309,278.156 87.853,277.929 C86.99,277.504 86.147,277.02 85.316,276.51 C86.379,275.559 87.32,274.432 88.188,273.354 C88.578,273.354 88.968,273.089 89.003,272.564 C89.006,272.518 89.009,272.473 89.011,272.428 C89.437,272.445 89.861,272.479 90.283,272.576 C91.098,272.758 91.874,272.984 92.714,273.026 C94.037,273.097 94.041,271.014 92.714,270.967 C91.857,270.94 91.043,270.652 90.2,270.514 C89.338,270.372 88.445,270.442 87.573,270.45 C85.828,270.465 83.981,270.28 82.295,270.8 C81.146,271.154 80.1,271.747 79.116,272.432 C77.827,271.602 76.536,270.773 75.241,269.952 C76.923,268.934 78.486,267.236 78.429,265.205 C78.424,265.062 78.36,264.946 78.266,264.873 C78.704,264.922 79.142,264.988 79.573,265.073 C79.994,265.157 80.499,265.05 80.928,265.037 C81.64,265.014 82.298,265.162 82.951,265.443 C83.27,265.581 83.554,265.125 83.229,264.966 C82.304,264.521 81.326,264.33 80.311,264.223 C78.926,264.07 77.605,263.681 76.201,263.625 C75.298,263.59 73.936,263.586 73.123,264.05 C72.383,264.472 71.614,264.832 70.845,265.192 C70.308,265.443 69.706,265.718 69.088,266.023 L68.288,265.514 C67.044,264.721 65.897,263.698 64.712,262.819 C64.462,262.635 64.214,262.457 63.965,262.272 C64.378,262.308 64.816,262.279 65.241,262.263 C66.467,262.214 67.547,262.06 68.643,261.447 C69.239,261.111 69.859,260.34 70.549,260.24 C71.257,260.138 71.756,259.51 72.421,259.291 C72.709,259.197 72.751,258.742 72.421,258.667 C72.065,258.585 71.651,258.5 71.291,258.602 C71.066,258.667 70.836,258.687 70.609,258.705 C70.683,258.413 70.648,258.088 70.492,257.836 C70.216,257.389 69.84,257.09 69.41,256.89 C70.115,256.924 70.816,257.001 71.486,257.131 C73.01,257.426 74.116,258.746 75.453,259.456 C76.08,259.786 76.635,258.844 76.009,258.503 C74.672,257.776 73.605,256.517 72.162,256.006 C70.507,255.426 68.649,255.369 66.916,255.371 C65.43,255.373 64.067,255.732 62.768,256.269 C62.72,256.283 62.676,256.296 62.626,256.31 C61.552,256.636 60.509,257.01 59.845,257.74 C59.456,257.96 59.068,258.187 58.679,258.411 C56.422,256.76 54.181,255.09 51.987,253.354 C52.198,253.362 52.403,253.367 52.59,253.374 C53.703,253.413 54.808,253.329 55.918,253.31 C56.567,253.298 57.3,252.877 57.901,252.652 C58.688,252.363 59.472,252.071 60.257,251.78 C60.936,251.527 61.481,251.366 61.988,250.845 C62.431,250.388 62.873,250.238 63.489,250.121 C63.785,250.067 63.953,249.901 64.025,249.698 C64.848,250.162 65.607,250.739 66.274,251.455 C66.773,251.994 67.569,251.191 67.076,250.653 C64.386,247.71 60.792,246.418 56.853,246.467 C54.88,246.495 52.933,246.883 51.06,247.48 C49.882,247.859 48.24,248.362 47.142,249.246 C44.325,246.663 41.662,243.905 39.051,241.114 C39.326,240.953 39.601,240.784 39.876,240.615 C40.008,240.723 40.139,240.834 40.267,240.948 C40.384,241.219 40.56,241.482 40.788,241.726 C40.832,241.775 40.88,241.817 40.927,241.863 C41.173,243.855 44.458,243.966 46.01,243.726 C47.396,243.511 48.952,243.015 50.084,242.082 C50.347,241.95 50.603,241.806 50.846,241.654 C51.271,241.39 51.667,241.086 51.974,240.697 C52.885,240.57 53.825,240.532 54.733,240.457 C55.439,240.654 56.151,240.831 56.871,240.948 C57.715,241.085 58.088,239.816 57.231,239.65 C56.766,239.56 56.308,239.452 55.855,239.333 C55.75,239.195 55.583,239.094 55.353,239.068 C55.114,239.042 54.877,239.014 54.641,238.987 C52.088,238.211 49.627,237.234 46.873,237.195 C44.771,237.165 42.362,237.31 40.438,238.271 C39.28,237.581 37.872,237.224 36.785,238.148 C36.692,238.227 36.635,238.341 36.611,238.461 C35.188,236.872 33.805,235.246 32.477,233.573 C31.357,232.16 30.334,230.678 29.357,229.166 C29.48,229.118 29.604,229.068 29.727,229.015 C29.753,229.183 29.793,229.346 29.847,229.495 C30.015,229.956 30.3,230.373 30.663,230.74 C30.69,231.16 30.993,231.563 31.578,231.632 C31.683,231.644 31.787,231.652 31.891,231.664 C32.901,232.229 34.087,232.535 35.076,232.511 C36.722,232.469 38.393,232.354 40,231.972 C40.588,231.972 41.176,231.972 41.768,231.974 C42.684,231.977 43.097,231.21 43.011,230.51 C43.013,230.509 43.013,230.508 43.015,230.508 C43.129,230.585 43.242,230.662 43.355,230.736 C44.287,231.332 46.597,231.023 46.818,232.541 C46.921,233.254 48.088,233.076 48.06,232.374 C47.999,230.834 46.296,229.843 45.006,229.4 C44.877,229.358 44.747,229.325 44.616,229.298 L44.434,229.268 C44.192,229.296 44.134,229.266 44.264,229.183 C43.804,228.841 43.374,228.458 42.924,228.106 C42.01,227.39 41.079,226.712 40.027,226.207 C38.921,225.673 37.879,225.656 36.681,225.532 C35.508,225.41 34.357,225.294 33.179,225.409 C31.953,225.529 30.884,225.982 29.782,226.509 C29.258,226.76 28.718,227.032 28.206,227.345 C27.969,226.962 27.734,226.58 27.498,226.196 C25.567,223.03 23.764,219.783 22.113,216.465 C22.335,216.686 22.571,216.907 22.774,217.172 C24.255,219.11 26.254,220.102 28.671,220.119 C30.382,220.13 34.964,220.332 36.077,218.389 C36.587,218.842 37.091,219.279 37.688,219.642 C38.007,219.834 38.552,220.167 38.937,220.151 C39.293,220.138 39.416,220.301 39.718,220.521 C40.27,220.927 41.083,220.122 40.672,219.57 C40.469,219.297 40.261,218.963 39.954,218.793 C39.664,218.636 39.315,218.649 39.059,218.487 C38.25,217.968 37.639,217.262 36.962,216.596 C35.448,215.104 33.559,213.816 31.618,212.956 C29.602,212.063 27.261,211.479 25.058,211.384 C23.384,211.314 21.537,212.359 20.904,213.966 C20.431,212.956 19.967,211.939 19.523,210.915 C18.198,207.857 17.066,204.721 16.025,201.555 C16.277,201.806 16.531,202.053 16.79,202.298 C17.349,202.828 17.948,203.078 18.657,203.362 C19.916,203.862 21.282,204.139 22.638,204.117 C23.155,204.11 23.902,203.963 24.596,203.692 C25.509,203.772 26.421,203.913 27.3,204.158 C27.949,204.339 28.667,204.502 29.372,204.711 C29.398,204.777 29.423,204.845 29.446,204.913 C29.55,205.245 29.843,205.413 29.96,205.726 C30.1,206.092 30.064,206.516 30.072,206.901 C30.094,208.114 31.931,208.115 31.953,206.901 C31.958,206.595 31.97,206.268 31.964,205.941 C32.172,206.11 32.365,206.296 32.539,206.507 C32.716,206.722 33.066,206.442 32.919,206.212 C32.621,205.737 32.251,205.349 31.839,205.017 C31.798,204.873 31.748,204.729 31.678,204.595 C31.474,204.212 31.395,204.15 31.313,203.897 C31.155,203.416 30.904,202.968 30.627,202.547 C30.236,201.953 29.753,201.427 29.219,200.949 C29.094,200.217 28.822,199.55 28.341,198.838 C27.582,197.718 26.777,196.578 25.787,195.656 C24.825,194.762 23.733,194.109 22.486,193.706 C21.924,193.523 21.334,193.448 20.751,193.371 C20.038,193.277 19.561,193.506 18.981,193.796 C17.486,193.348 15.922,193.371 14.319,193.598 C12.943,189.278 10.996,185.131 10.124,180.667 C8.987,174.829 7.192,169.104 5.893,163.29 C5.485,161.456 5.122,159.616 4.798,157.771 C4.763,157.571 4.731,157.372 4.695,157.171 C4.682,157.1 4.67,157.027 4.657,156.955 C3.228,148.475 2.705,139.886 3.145,131.268 C4.186,110.91 10.382,91.032 20.682,73.474 C24.12,67.611 27.982,61.983 32.252,56.697 C33.031,55.736 31.75,54.371 30.866,55.31 C16.961,70.073 8,89.154 3.477,108.809 C1.191,118.746 0.097,128.971 0.341,139.166 Z" id="Fill-51" fill="#A45633"></path>
                <text id="Bakery" font-family="Kurale-Regular, Kurale" font-size="85.942" font-weight="normal" letter-spacing="0.053" fill="#A45633">
                    <tspan x="25.884" y="191.266152">B</tspan>
                    <tspan x="76.556838" y="191.266152" letter-spacing="-4.330042">a</tspan>
                    <tspan x="119.151128" y="191.266152" letter-spacing="-5.361346">k</tspan>
                    <tspan x="159.167158" y="191.266152" letter-spacing="-5.10352">e</tspan>
                    <tspan x="195.229856" y="191.266152" letter-spacing="-4.2441">r</tspan>
                    <tspan x="225.018788" y="191.266152">y</tspan>
                </text>
            </g>
        </g>
    </g>
</svg>